<svg xmlns="http://www.w3.org/2000/svg" width="783" height="783" preserveAspectRatio="none" style="display: block;" version="1.1" viewBox="0 0 2048 2048">
<path fill="rgb(221,51,41)" d="M275.731 64.16c40.131-32.711 90.979-50.377 142.545-52.557 14.785-.626 30.352-.423 45.185-.41l75.594.03 273.233-.032 344.242-.004 105.23-.087c38.24-.015 89.48-3.496 119.51 23.444 35.12 31.507 69.34 69.293 103.36 102.419 10.54 10.26 20.44 22.777 31.23 33.505l201.42 201.384 60.04 60.048c24.72 24.645 51.32 48.325 62.19 83.187 1.53 4.904 1.55 11.667 2.53 16.855 2.19 8.737 1.78 28.2 1.83 38.119l.05 62.755-.06 204.435.03 319.729.01 102.91c-.01 17.4.57 39.7-.41 56.78l-.64.92c.12 4.35.44 10.01.31 14.24-.23 28.41.7 57.54.73 86.19l.03 255.89.01 94.69c-.02 18.26.56 41.47-1.1 59.21-.32 39.33-29.58 108.78-56.74 137.63-38.05 40.43-106.14 67.75-161.39 68.82-28.51.56-56.06.56-83.91.56l-153.7-.04h-471.116l-333.105.04-95.867.02c-36.827.03-61.738 1.03-98.645-4.3a227.75 227.75 0 0 1-117.179-53.48c-48.562-43-70.402-107.2-72.622-170.38-1.578-44.89-.286-90.22-.06-135.08l.048-212.83-.156-576.77-.302-442.703.26-116.295c.018-75.441-4.057-169.864 50.014-230.194 6.668-10.036 18.356-20.714 27.371-28.647m1393.139 1875.33c43.85-17.52 81.58-59.16 85.89-107.74 1.37-15.49.72-33.26.74-48.98l-.01-79.19.02-245.54.01-546.945c-.11-115.639-1.23-234.097.41-349.491-73.95.838-148.52.211-222.53.281l-67.5.093c-24.26.032-49.21 1.191-72.92-4.108-67.05-14.98-121.5-67.21-129.1-136.998-1.23-11.311-1.58-21.938-1.67-33.241l.01-184.054c-.01-27.807.71-59.888-.51-87.252l-.67-.893c-1.71-2.315-2.78-3.229-2.94-6.062l3.03-1.113.63-2.542-.68-1.055c-10.34-1.36-29.32-.523-40.66-.413l-57.75.021-222.621-.025-362.592.016-117.956-.006c-17.714-.002-43.733-.786-60.995.239-39.047 3.449-60.539 23.448-85.235 51.572-16.106 18.342-24.339 43.534-25.153 67.644-1.096 32.478-.298 66.37-.277 99.071l.151 189.106.211 521.845-.262 540.33.061 171.43c.094 27.35-.507 53.63.661 81.94 2.306 55.94 56.743 112.19 112.177 117.69 18.618 1.85 46.184.25 65.844.19l125.64-.01 419.446.03 428.52-.04 134.27.07c19.22.01 53.31 1.14 71.49-.69 7.8-.73 15.47-2.47 22.82-5.18m18.56-1465.398c.57-5.665.15-7.434-4.85-11.051-4.81-3.486-8.54-7.228-12.74-11.385l-64.81-64.692-206.3-208.781c-8.7-8.714-39.77-43.024-47.87-46.575-1.78 8.389-.92 43.009-.91 53.779v111.167l-.06 73.447c-.07 12.664-.79 28.946.14 41.161 2.04 26.798 32.8 56.833 58.71 61.541 13.38 2.431 30.1 1.433 43.92 1.314l51.77-.071c59.34-.021 124.1 1.393 183 .146"></path>
<path fill="#fff" d="M1668.87 1939.49c43.85-17.52 81.58-59.16 85.89-107.74 1.37-15.49.72-33.26.74-48.98l-.01-79.19.02-245.54.01-546.945c-.11-115.639-1.23-234.097.41-349.491-73.95.838-148.52.211-222.53.281l-67.5.093c-24.26.032-49.21 1.191-72.92-4.108-67.05-14.98-121.5-67.21-129.1-136.998-1.23-11.311-1.58-21.938-1.67-33.241l.01-184.054c-.01-27.807.71-59.888-.51-87.252l-.67-.893c-1.71-2.315-2.78-3.229-2.94-6.062l3.03-1.113.63-2.542-.68-1.055c-10.34-1.36-29.32-.523-40.66-.413l-57.75.021-222.621-.025-362.592.016-117.956-.006c-17.714-.002-43.733-.786-60.995.239-39.047 3.449-60.539 23.448-85.235 51.572-16.106 18.342-24.339 43.534-25.153 67.644-1.096 32.478-.298 66.37-.277 99.071l.151 189.106.211 521.845-.262 540.33.061 171.43c.094 27.35-.507 53.63.661 81.94 2.306 55.94 56.743 112.19 112.177 117.69 18.618 1.85 46.184.25 65.844.19l125.64-.01 419.446.03 428.52-.04 134.27.07c19.22.01 53.31 1.14 71.49-.69 7.8-.73 15.47-2.47 22.82-5.18m18.56-1465.398c.57-5.665.15-7.434-4.85-11.051-4.81-3.486-8.54-7.228-12.74-11.385l-64.81-64.692-206.3-208.781c-8.7-8.714-39.77-43.024-47.87-46.575-1.78 8.389-.92 43.009-.91 53.779v111.167l-.06 73.447c-.07 12.664-.79 28.946.14 41.161 2.04 26.798 32.8 56.833 58.71 61.541 13.38 2.431 30.1 1.433 43.92 1.314l51.77-.071c59.34-.021 124.1 1.393 183 .146"></path>
<path fill="rgb(221,51,41)" d="M1149.76 598.149c1.47-.088 2.91-.024 4.36.181 4.55.641 8.82 2.878 11.5 6.666 8.46 11.943 2.31 88.188-.93 105.467 48.86 2.66 96.09 22.032 115.19 70.334 3.8 9.603 6.23 19.218 13.24 28.456 9.22 12.155 28.27 21.523 35.85 35.127 8.65 38.618-36.59 86.32-72.03 94.916-13.42 3.256-29.08 4.193-37.83 8.619-30.42 15.379-5.02 61.915 2.7 84.275 4.26 12.16 9.88 23.54 11.95 36.29 5.83 35.88 6.37 76.51-5.03 111.28-7.74 23.26-17.97 43.77-25.85 66.12a424.46 424.46 0 0 0-20.3 199.94c2.81 21.56 4.32 36.5 13.81 56.31 12.08-2.22 24.4-1.37 35.73 3.6 12.45 5.46 23.44 15.57 28.32 28.42 3.5 9.2 5.37 24.66.84 33.79-2.44 4.93-6.59 8.1-11.75 9.8-10.18 3.36-80.1 3.31-93.21 1.29-8.61-1.32-17.64-4.42-25.31-8.53-7.4-3.98-13.79-10.48-19.63-16.41-53.81-54.57-39.53-139.97-60.36-207.73-15.37-49.98-45.79-95.42-93.205-120.17-17.276-9.01-60.618-21.55-79.342-14.3-2.585 1-3.018 2.01-3.931 4.49 2.499 14.5 20.962 14.68 32.56 16.71 106.178 18.63 154.958 159.71 85.398 241.64-8.648 10.19-20.137 20.19-29.607 30 28.183 1.45 59.547-2.48 82.277 16.72a46.47 46.47 0 0 1 16.33 32.44c.81 11-2.03 17.25-8.96 25.17-17.24 1.73-47.19.81-65.29.77l-98.834.03c-45.561.01-86.645 3.39-130.468-11.69-18.838-6.48-31.543-14.77-48.422-24.93-2.568 2.21-7.166 6.07-7.966 9.48-7.952 33.89 42.716 71.43 69.105 80.64 59.112 20.64 124.468 11.3 185.776 12.85 18.316.74 38.853-2.44 56.239 4.32 23.07 8.98 31.24 37.28 20.67 58.6-5.72 11.54-18.31 21.28-30.83 24.75-22.072 6.13-47.041 1.75-69.811 3.03-81.946.46-144.568 6.23-220.43-33.27-76.674-39.91-135.529-133.69-79.22-214.69 6.671-9.6 31.718-19.88 31.58-33.61-.184-18.37-6.358-37.94-8.369-56.36-4.08-34.99-4.181-74.23 1.173-108.95 11.327-71.63 43.123-144.76 93.428-197.86 37.834-39.94 93.865-72.99 145.672-91.01 27.065-9.42 45.098-20.706 61.364-44.773 20.757-30.709 7.159-66.625 7.846-100.64.768-42.606 13.689-88.76 43.177-120.666 6.07-6.57 14.23-13.282 19.58-20.367 7.53-9.959 13.66-21.219 21.35-31.127 22.96-32.681 61.01-73.307 99.9-85.438"></path>
</svg>
